<?xml version="1.0" encoding="utf-8"?>
<!-- Generator: Adobe Illustrator 19.1.0, SVG Export Plug-In . SVG Version: 6.00 Build 0)  -->
<svg version="1.1" id="Layer_1" xmlns="http://www.w3.org/2000/svg" xmlns:xlink="http://www.w3.org/1999/xlink" x="0px" y="0px"
	 viewBox="0 0 167.5 86.7" style="enable-background:new 0 0 167.5 86.7;" xml:space="preserve">
<g>
	<g>
		<polygon points="63.6,33.3 32.2,46.9 32.2,37.4 55.3,28.5 32.2,19.6 32.2,10.4 63.6,24.2 63.6,33.3 		"/>
	</g>
	<g>
		<polygon points="84.2,0 84.2,57.3 75.1,57.3 75.1,0 84.2,0 		"/>
	</g>
	<g>
		<path d="M109.3,28.6c0,9,2.1,12.7,7,12.7c4.8,0,6.9-3.7,6.9-12.7c0-9-2.1-12.6-6.9-12.6C111.4,16,109.3,19.6,109.3,28.6
			L109.3,28.6z M133.2,28.6c0,12.9-6.1,20-16.9,20c-10.9,0-17-7.1-17-20c0-12.8,6.1-20,17-20C127.1,8.7,133.2,15.8,133.2,28.6
			L133.2,28.6z"/>
	</g>
</g>
<g>
	<path d="M2.6,73l3.3,10.4L9.2,73h2.6L7.2,86.4H4.6L0,73H2.6z"/>
	<path d="M23.6,72.7c0.9,0,1.7,0.1,2.5,0.4c0.8,0.3,1.4,0.7,1.9,1.3c1.1,1.2,1.7,2.9,1.7,5.2c0,2.3-0.6,4-1.7,5.3
		c-1.1,1.2-2.6,1.7-4.4,1.7c-1.9,0-3.3-0.6-4.4-1.8c-1.1-1.2-1.7-3-1.7-5.2c0-2.3,0.6-4,1.7-5.3C20.2,73.3,21.7,72.7,23.6,72.7z
		 M27.2,79.7c0-1.5-0.3-2.7-1-3.6c-0.6-0.8-1.5-1.3-2.6-1.3c-1.1,0-2,0.4-2.6,1.3c-0.7,0.8-1,2-1,3.6c0,1.5,0.3,2.7,1,3.5
		c0.7,0.8,1.5,1.2,2.6,1.2c1.1,0,2-0.4,2.6-1.2C26.8,82.4,27.2,81.3,27.2,79.7z"/>
	<path d="M39.3,84.3h5.6v2.1h-8V73h2.5V84.3z"/>
	<path d="M53.6,73v8.4c0,1.1,0.3,1.9,0.8,2.4c0.6,0.5,1.3,0.7,2.2,0.7c0.9,0,1.6-0.2,2.2-0.7c0.6-0.5,0.8-1.3,0.8-2.4V73h2.5v8.4
		c0,1.7-0.5,3-1.4,4c-1,0.9-2.3,1.4-4.1,1.4c-1.7,0-3.1-0.5-4.1-1.4c-1-0.9-1.4-2.2-1.4-4V73H53.6z"/>
	<path d="M73.4,73l3.7,8l3.7-8h3.4v13.4h-2.5V76.2l-3.8,8.7h-1.6l-4-9v10.5h-2.5V73H73.4z"/>
	<path d="M92.3,73h8.7v2.1h-6.3v3.5h5.9v2.1h-5.9v3.5h6.3v2.1h-8.7V73z"/>
	<path d="M111.4,73l6,9.5V73h2.5v13.4h-2.5l-6.2-9.8v9.8h-2.5V73H111.4z"/>
	<path d="M126.1,73h10.9v2.1h-4.2v11.3h-2.5V75.1h-4.2V73z"/>
	<path d="M145.3,73h3.1l4.4,13.4h-2.6l-0.9-2.9h-5l-1,2.9h-2.6L145.3,73z M144.9,81.7h3.8l-1.9-5.8L144.9,81.7z"/>
	<path d="M161.9,84.3h5.6v2.1h-8V73h2.5V84.3z"/>
</g>
</svg>
